<svg width="178" height="34" viewBox="0 0 178 34" fill="none" xmlns="http://www.w3.org/2000/svg">
<mask id="mask0_2028_194" style="mask-type:alpha" maskUnits="userSpaceOnUse" x="8" y="7" width="162" height="27">
<path d="M8.40527 7.5H170L166.67 34H8.40527V7.5Z" fill="url(#paint0_linear_2028_194)"/>
</mask>
<g mask="url(#mask0_2028_194)">
<g opacity="0.32">
<rect x="-6.36621" y="0.800003" width="185.697" height="31.2" fill="url(#paint1_linear_2028_194)" style="mix-blend-mode:color-dodge"/>
</g>
<path d="M21.5 8H55L49 32H14L17.75 20L21.5 8Z" fill="url(#paint2_linear_2028_194)" fill-opacity="0.64" style="mix-blend-mode:overlay"/>
<path d="M55.5 8H89L83 32H48L55.5 8Z" fill="url(#paint3_linear_2028_194)" fill-opacity="0.64" style="mix-blend-mode:overlay"/>
<path d="M69.5 8H103L97 32H62L69.5 8Z" fill="url(#paint4_linear_2028_194)" fill-opacity="0.64" style="mix-blend-mode:overlay"/>
<path d="M113.5 8H147L141 32H106L113.5 8Z" fill="url(#paint5_linear_2028_194)" fill-opacity="0.64" style="mix-blend-mode:overlay"/>
</g>
<defs>
<linearGradient id="paint0_linear_2028_194" x1="86.4824" y1="6" x2="86.4824" y2="34" gradientUnits="userSpaceOnUse">
<stop stop-color="white" stop-opacity="0"/>
<stop offset="1" stop-color="white"/>
</linearGradient>
<linearGradient id="paint1_linear_2028_194" x1="-6.36621" y1="16.4" x2="169" y2="16" gradientUnits="userSpaceOnUse">
<stop stop-color="#3572E6"/>
<stop offset="1" stop-color="#CD9EFB"/>
</linearGradient>
<linearGradient id="paint2_linear_2028_194" x1="55" y1="20" x2="14" y2="20" gradientUnits="userSpaceOnUse">
<stop stop-color="white" stop-opacity="0"/>
<stop offset="0.221154" stop-color="white" stop-opacity="0.34"/>
<stop offset="1" stop-color="white" stop-opacity="0"/>
</linearGradient>
<linearGradient id="paint3_linear_2028_194" x1="89" y1="20" x2="48" y2="20" gradientUnits="userSpaceOnUse">
<stop stop-color="white" stop-opacity="0"/>
<stop offset="0.221154" stop-color="white" stop-opacity="0.34"/>
<stop offset="1" stop-color="white" stop-opacity="0"/>
</linearGradient>
<linearGradient id="paint4_linear_2028_194" x1="103" y1="20" x2="62" y2="20" gradientUnits="userSpaceOnUse">
<stop stop-color="white" stop-opacity="0"/>
<stop offset="0.221154" stop-color="white" stop-opacity="0.34"/>
<stop offset="1" stop-color="white" stop-opacity="0"/>
</linearGradient>
<linearGradient id="paint5_linear_2028_194" x1="147" y1="20" x2="106" y2="20" gradientUnits="userSpaceOnUse">
<stop stop-color="white" stop-opacity="0"/>
<stop offset="0.221154" stop-color="white" stop-opacity="0.34"/>
<stop offset="1" stop-color="white" stop-opacity="0"/>
</linearGradient>
</defs>
</svg>
